# Blender v2.76 (sub 0) OBJ File: 'demo (copie).blend'
# www.blender.org
o akko_jambe_droite_Cylinder.007
v 3.351362 14.428696 0.391276
v 3.297636 14.414953 0.187257
v 3.297471 14.392024 0.389397
v 3.297624 14.358432 0.184063
v 3.297456 14.321180 0.385393
v 3.346645 14.330171 0.182291
v 3.351332 14.284511 0.383128
v 3.395678 14.358432 0.183713
v 3.405223 14.321182 0.385008
v 3.405237 14.392026 0.389012
v 3.376725 14.419876 1.041801
v 3.278667 14.356731 1.089331
v 3.278665 14.251052 1.088865
v 3.376892 14.187907 1.088514
v 3.474953 14.251052 1.041450
v 3.474953 14.377368 1.041450
v 3.378928 14.432238 1.229683
v 3.264455 14.411436 1.284647
v 3.264794 14.223849 1.379601
v 3.379716 14.151697 1.379191
v 3.495911 14.229614 1.229266
v 3.495911 14.435149 1.229266
v 3.346668 14.443213 0.188679
v 3.395689 14.414953 0.186907
v 3.346499 14.445895 0.141229
v 3.297466 14.417634 0.139807
v 3.297455 14.361113 0.136613
v 3.340579 14.336252 0.135054
v 3.395509 14.361113 0.136263
v 3.395520 14.417634 0.139457
v 3.357606 14.455050 0.069479
v 3.284114 14.431192 0.068393
v 3.284229 14.319422 0.060615
v 3.322813 14.288615 0.100973
v 3.365430 14.302208 0.059352
v 3.415033 14.403439 0.066357
v 3.357714 14.453342 0.099704
v 3.415141 14.401731 0.096583
v 3.384538 14.329344 0.092601
v 3.331977 14.313538 0.120787
v 3.282696 14.350933 0.094185
v 3.284222 14.429484 0.098618
v 3.346908 14.411642 -0.026717
v 3.320831 14.403177 -0.027102
v 3.315131 14.376398 -0.028595
v 3.335508 14.358085 -0.029703
v 3.361585 14.366550 -0.029317
v 3.367285 14.393329 -0.027825
v 3.257638 14.127168 0.051307
v 3.280225 14.054248 0.086359
v 3.319527 14.122487 0.050661
v 3.263281 14.208682 0.048454
v 3.248909 14.231410 0.008508
v 3.294290 14.161156 0.004376
v 3.297353 14.167202 0.080540
v 3.364370 14.206933 0.006712
v 3.338027 14.190436 0.053711
v 3.252370 14.285618 0.011559
v 3.309797 14.234006 0.008437
v 3.355812 14.257023 0.056833
v 3.274611 14.274238 0.058096
v 3.310067 14.229730 0.084115
v 3.383289 14.257864 0.009523
v 3.362611 14.416691 0.638315
v 3.300296 14.374289 0.636142
v 3.300282 14.304605 0.632204
v 3.362580 14.262202 0.629585
v 3.424910 14.374289 0.635697
v 3.424896 14.304605 0.631759
v 3.299935 14.377078 0.604568
v 3.361144 14.267194 0.598140
v 3.422383 14.308868 0.600276
v 3.361174 14.418755 0.606705
v 3.299921 14.308859 0.600713
v 3.422396 14.377088 0.604131
v 3.299480 14.303004 0.658041
v 3.428060 14.375392 0.661672
v 3.299495 14.375378 0.662130
v 3.363739 14.259516 0.650930
v 3.428046 14.303019 0.657583
v 3.357433 14.457795 0.020914
v 3.289715 14.405185 0.019288
v 3.267877 14.358468 0.015620
v 3.325278 14.307264 0.005280
v 3.398795 14.330713 0.013584
v 3.414860 14.406183 0.017792
v 3.352198 14.434232 0.005492
v 3.302426 14.418075 0.004757
v 3.291546 14.366962 0.001908
v 3.330439 14.332008 -0.000206
v 3.380211 14.348166 0.000529
v 3.391091 14.399278 0.003378
v 3.370365 14.240196 0.870637
v 3.417138 14.277976 0.813201
v 3.319736 14.276499 0.823494
v 3.408161 14.388934 0.662509
v 3.367073 14.428396 0.761873
v 3.322895 14.391304 0.662947
v 3.330814 14.402854 0.748626
v 3.405401 14.405210 0.742392
v 3.289628 14.381096 0.650877
v 3.426276 14.291909 0.648897
v 3.363516 14.433498 0.657999
v 3.296714 14.294011 0.645931
v 3.434211 14.380863 0.654772
v 3.371275 14.220677 0.862064
v 3.416912 14.397159 0.655755
v 3.314296 14.400259 0.651872
v 3.413179 14.266240 0.809571
v 3.326411 14.265609 0.818653
v 3.367433 14.445242 0.764711
v 3.323787 14.414757 0.744362
v 3.413553 14.417343 0.741271
v 3.299437 14.339990 0.645951
v 3.299878 14.343767 0.588506
v 3.296985 14.338352 0.634256
v 3.300239 14.340245 0.620039
v 3.297413 14.357401 0.373260
v 3.422332 14.343889 0.586074
v 3.427995 14.340117 0.643497
v 3.430186 14.337297 0.635704
v 3.424845 14.340358 0.617597
v 3.405173 14.357515 0.370880
vt 0.838744 0.161603
vt 0.866675 0.154984
vt 0.869377 0.300975
vt 0.840958 0.308799
vt 0.022879 0.147098
vt 0.073344 0.141303
vt 0.119296 0.282527
vt 0.086068 0.276121
vt 0.056044 0.289791
vt 0.101828 0.146547
vt 0.155610 0.287716
vt 0.485614 0.120020
vt 0.536048 0.124164
vt 0.510614 0.272482
vt 0.452187 0.267736
vt 0.088131 0.483584
vt 0.130135 0.783551
vt 0.077091 0.770118
vt 0.051332 0.569403
vt 0.070988 0.552254
vt 0.075463 0.489103
vt 0.566241 0.126090
vt 0.548458 0.274896
vt 0.530969 0.261867
vt 0.787850 0.162702
vt 0.782744 0.309458
vt 0.733986 0.532526
vt 0.748435 0.526484
vt 0.748435 0.584095
vt 0.742592 0.590329
vt 0.753917 0.663980
vt 0.746457 0.655709
vt 0.753917 0.644943
vt 0.719888 0.488821
vt 0.705604 0.487785
vt 0.726741 0.464944
vt 0.738322 0.468801
vt 0.152748 0.476164
vt 0.224835 0.776645
vt 0.118838 0.469836
vt 0.539314 0.476216
vt 0.550976 0.757463
vt 0.483082 0.758389
vt 0.500653 0.473751
vt 0.521417 0.463161
vt 0.703236 0.283234
vt 0.678717 0.420053
vt 0.585667 0.411967
vt 0.608163 0.270613
vt 0.475194 0.897490
vt 0.340434 1.000000
vt 0.375610 0.786694
vt 0.266451 0.979940
vt 0.092349 0.923838
vt 0.585667 0.895985
vt 0.287953 0.789030
vt 0.338750 0.994537
vt 0.751475 0.316130
vt 0.755048 0.464944
vt 0.487396 0.084976
vt 0.540265 0.089388
vt 0.761608 0.097717
vt 0.760617 0.075779
vt 0.827758 0.076300
vt 0.828749 0.098237
vt 0.017501 0.113399
vt 0.067966 0.107605
vt 0.570458 0.091313
vt 0.837188 0.127164
vt 0.865119 0.120544
vt 0.093024 0.112218
vt 0.786294 0.128263
vt 0.000000 0.061066
vt 0.020620 0.025376
vt 0.060813 0.016173
vt 0.099712 0.048587
vt 0.469860 0.074115
vt 0.451071 0.059170
vt 0.491626 0.031470
vt 0.517950 0.056908
vt 0.003426 0.082532
vt 0.073459 0.074227
vt 0.581352 0.039207
vt 0.578666 0.061360
vt 0.132414 0.081956
vt 0.111922 0.099181
vt 0.877142 0.068185
vt 0.878133 0.090122
vt 0.649866 0.492329
vt 0.671144 0.502549
vt 0.671144 0.522086
vt 0.649866 0.531404
vt 0.628587 0.521185
vt 0.628587 0.501647
vt 0.533785 0.000000
vt 0.585667 0.003613
vt 0.645636 0.681369
vt 0.643797 0.770696
vt 0.614612 0.716870
vt 0.592748 0.637921
vt 0.826166 0.041051
vt 0.859288 0.031388
vt 0.759025 0.040531
vt 0.172999 0.000000
vt 0.269694 0.025509
vt 0.196823 0.029496
vt 0.338750 0.049778
vt 0.238276 0.055542
vt 0.931185 0.287441
vt 0.920990 0.327227
vt 0.895467 0.258255
vt 0.941232 0.384747
vt 0.878133 0.318090
vt 0.915382 0.077255
vt 0.949315 0.000000
vt 0.958187 0.063145
vt 0.942494 0.110120
vt 0.897492 0.119098
vt 0.926823 0.156024
vt 0.705605 0.601958
vt 0.698524 0.640162
vt 0.645636 0.628218
vt 0.941232 0.248669
vt 0.904467 0.225611
vt 0.139417 0.042359
vt 0.183297 0.064124
vt 0.124829 0.006131
vt 0.585667 0.599417
vt 0.646316 0.573759
vt 0.585667 0.546266
vt 0.914237 0.186397
vt 0.958187 0.176642
vt 0.937894 0.225611
vt 0.705604 0.548807
vt 0.878133 0.155131
vt 0.539658 0.433687
vt 0.538037 0.456991
vt 0.520858 0.443982
vt 0.522870 0.420703
vt 0.143950 0.435722
vt 0.149754 0.457975
vt 0.117044 0.451509
vt 0.111894 0.429181
vt 0.503216 0.431363
vt 0.500813 0.454617
vt 0.433252 0.449129
vt 0.436820 0.425969
vt 0.841653 0.466019
vt 0.841514 0.489054
vt 0.774199 0.489817
vt 0.775503 0.466769
vt 0.185212 0.441619
vt 0.191746 0.463974
vt 0.083041 0.442716
vt 0.087538 0.465119
vt 0.053812 0.479813
vt 0.049893 0.457158
vt 0.026876 0.302499
vt 0.753454 0.644943
vt 0.746457 0.640931
vt 0.753454 0.590329
vt 0.469832 0.587151
vt 0.460892 0.584311
vt 0.493937 0.467353
vt 0.431340 0.464856
vt 0.195564 0.479223
vt 0.059584 0.548769
vt 0.066172 0.480312
vt 0.853419 0.022561
vt 0.819974 0.028057
vt 0.606346 0.535242
vt 0.595974 0.510799
vt 0.606346 0.497951
vt 0.646960 0.554748
vt 0.687574 0.536963
vt 0.687574 0.499672
vt 0.705605 0.493745
vt 0.646960 0.480166
vt 0.645636 0.464944
vt 0.830759 0.000000
vt 0.813237 0.002880
vt 0.711646 0.595587
vt 0.733986 0.591784
vt 0.733986 0.629113
vt 0.711646 0.615145
vt 0.733794 0.559390
vt 0.705604 0.563002
vt 0.705971 0.526484
vt 0.733986 0.540257
vt 0.733986 0.574469
vt 0.705972 0.591784
vt 0.774502 0.027704
vt 0.789413 0.002695
vt 0.412315 0.626328
vt 0.338750 0.779856
vt 0.407979 0.465406
vt 0.398225 0.588123
vt 0.244064 0.628639
vt 0.198091 0.592912
vt 0.159870 0.466503
vt 0.081646 0.474252
vt 0.119412 0.460981
vt 0.755048 0.083326
vt 0.700574 0.000000
vt 0.721580 0.003748
vt 0.718285 0.063608
vt 0.848712 0.504420
vt 0.856534 0.583164
vt 0.806852 0.568258
vt 0.791018 0.505074
vt 0.403004 0.620255
vt 0.770489 0.504845
vt 0.755048 0.488162
vt 0.759516 0.474706
vt 0.733986 0.686826
vt 0.724227 0.692904
vt 0.722463 0.670722
vt 0.722860 0.629112
vt 0.733986 0.633114
vt 0.874512 0.494076
vt 0.878133 0.563065
vt 0.738322 0.520982
vt 0.727785 0.526484
vt 0.188187 0.595916
vt 0.227043 0.635813
vt 0.749932 0.521793
vt 0.738322 0.467070
vt 0.749932 0.464944
vt 0.735101 0.594359
vt 0.746457 0.590329
vt 0.746457 0.652630
vt 0.733986 0.652562
vt 0.746457 0.671662
vt 0.736025 0.658687
vt 0.722463 0.665760
vt 0.711959 0.668185
vt 0.713730 0.647882
vt 0.722463 0.647329
vt 0.713155 0.630059
vt 0.722463 0.629112
vt 0.722463 0.646513
vt 0.710117 0.647329
vt 0.521956 0.457623
vt 0.547108 0.471539
vt 0.788827 0.790382
vt 0.755048 0.642044
vt 0.850183 0.583164
vt 1.000000 0.653268
vt 1.000000 0.801058
vt 0.903159 0.806087
vn -0.003000 0.997500 0.070400
vn -0.867000 0.496700 0.040000
vn -0.883500 0.466300 0.045000
vn -0.003900 0.997800 0.065800
vn -0.879100 -0.473200 -0.057900
vn -0.872800 -0.484600 -0.057300
vn -1.000000 -0.000100 0.005200
vn 0.001700 -0.988300 -0.152300
vn -0.005400 -0.989700 -0.143300
vn 0.869800 -0.482900 -0.101000
vn 0.861700 -0.492900 -0.120300
vn -0.877800 0.335600 0.341800
vn -0.885800 0.456200 -0.084700
vn -0.099900 0.990800 -0.090800
vn -0.029500 0.569600 0.821400
vn -0.828100 0.255800 0.498700
vn -0.894200 0.266300 0.359700
vn 0.865600 0.500400 0.016600
vn 0.875500 0.482900 -0.018200
vn 0.997900 0.003400 -0.064000
vn -0.022600 -0.990400 0.136100
vn 0.050200 -0.902100 0.428600
vn 0.835400 -0.535000 0.126000
vn 0.751000 -0.660000 0.020500
vn -0.976100 -0.204700 -0.072400
vn -0.614700 -0.460500 -0.640300
vn -0.832500 -0.528900 -0.164700
vn 0.003800 0.735400 0.677600
vn -0.880100 0.211600 0.425000
vn -0.856900 -0.504200 -0.107100
vn -0.980400 -0.073100 0.182800
vn 0.887800 0.304800 0.344800
vn 0.839700 0.524900 -0.139400
vn 0.830500 -0.529700 -0.172100
vn 0.965800 -0.217100 -0.141600
vn 0.984200 -0.106800 0.141400
vn 0.099100 0.927200 0.361200
vn 0.701700 0.647300 0.297600
vn 0.873500 -0.365400 0.321600
vn 0.127900 -0.667000 0.733900
vn -0.031800 -0.986300 -0.161800
vn -0.535700 -0.313000 0.784200
vn -0.581200 0.629500 0.515600
vn -0.037700 -0.939900 0.339300
vn 0.859600 -0.483500 0.165200
vn 0.978900 0.184500 0.088000
vn 0.973600 0.222100 0.053000
vn 0.170300 0.985000 -0.028700
vn 0.204000 0.970900 0.125500
vn -0.838300 0.513500 0.182800
vn -0.873200 -0.412500 0.259300
vn 0.859800 0.497500 0.114600
vn 0.022200 0.990400 0.136300
vn -0.782500 0.621300 -0.040800
vn -0.814600 0.468800 -0.341400
vn -0.893500 0.100500 -0.437600
vn -0.889000 -0.021300 0.457300
vn -0.104400 -0.760400 0.641000
vn -0.085200 -0.494600 0.864900
vn 0.805500 -0.407400 0.430200
vn 0.772200 -0.587500 0.242000
vn -0.808300 0.566200 0.161500
vn -0.926400 -0.216300 0.308200
vn 0.107800 0.568500 -0.815600
vn 0.504100 0.212300 -0.837100
vn 0.393200 -0.308400 -0.866100
vn -0.113800 -0.473000 -0.873700
vn -0.510100 -0.116900 -0.852100
vn -0.399300 0.403900 -0.823100
vn 0.827400 -0.319300 -0.462000
vn 0.887700 0.266100 -0.375600
vn -0.072200 -0.403800 -0.912000
vn -0.196700 -0.883800 0.424300
vn -0.970900 -0.239100 -0.013700
vn -0.828300 0.017900 -0.560000
vn 0.087500 0.918500 -0.385500
vn -0.806400 0.067900 0.587500
vn 0.002100 -0.036700 0.999300
vn 0.767000 -0.222700 0.601800
vn 0.837100 -0.546000 -0.034200
vn 0.770200 -0.302400 -0.561500
vn -0.009200 -0.121900 0.992500
vn 0.761400 -0.252000 0.597200
vn 0.846700 -0.221500 -0.483700
vn -0.006900 0.040700 -0.999100
vn -0.787500 0.064300 0.613000
vn -0.864700 0.137600 -0.483100
vn -0.036200 -0.098000 -0.994500
vn 0.872900 0.486900 -0.030700
vn 0.826500 0.461200 -0.322700
vn 0.985900 0.006700 -0.166800
vn 0.996800 0.004400 -0.079200
vn -0.889700 -0.455300 -0.033200
vn -0.991100 0.007400 -0.133200
vn -0.999900 -0.000500 0.011400
vn 0.876600 -0.467200 -0.115400
vn 0.835300 -0.515900 -0.189900
vn -0.002700 -0.990500 -0.137000
vn -0.001200 -0.992800 -0.119400
vn 0.000200 0.998400 0.055600
vn 0.016900 0.919400 -0.392800
vn -0.883400 0.466200 0.046900
vn -0.821400 0.457700 -0.340300
vn 0.584600 -0.107200 -0.804200
vn 0.001700 -0.984200 -0.177200
vn -0.691100 0.709900 -0.135600
vn -0.561100 0.627700 -0.539500
vn 0.029900 0.753300 -0.657000
vn -0.625300 -0.066200 -0.777500
vn -0.113500 -0.471300 -0.874600
vn 0.452100 -0.319000 -0.832900
vn 0.575300 0.232500 -0.784200
vn -0.744200 -0.665600 0.056400
vn -0.802200 -0.573900 0.164400
vn -0.913800 0.398100 0.080400
vn -0.994500 -0.027100 -0.100700
vn 0.870200 0.270100 0.412000
vn 0.854100 0.167300 0.492500
vn -0.008000 0.928700 -0.370700
vn 0.885000 0.216100 0.412300
vn 0.752400 0.653800 -0.080600
vn 0.900100 0.400900 0.170700
vn 0.992200 -0.046900 -0.115200
s 1
f 23/1/1 2/2/2 3/3/3 1/4/4
f 2/5/2 4/6/5 5/7/6 118/8/7 3/9/3
f 4/6/5 6/10/8 7/11/9 5/7/6
f 6/12/8 8/13/10 9/14/11 7/15/9
f 78/16/12 12/17/13 11/18/14 97/19/15 99/20/16 98/21/17
f 8/13/10 24/22/18 10/23/19 123/24/20 9/14/11
f 24/25/18 23/1/1 1/4/4 10/26/19
f 93/27/21 106/28/22 109/29/23 94/30/24
f 76/31/25 104/32/26 66/33/27
f 97/34/15 111/35/28 112/36/29 99/37/16
f 76/38/25 13/39/30 12/17/13 78/16/12 114/40/31
f 77/41/32 16/42/33 15/43/34 80/44/35 120/45/36
f 11/46/14 17/47/37 22/48/38 16/49/33
f 15/43/34 21/50/39 20/51/40 14/52/41
f 13/39/30 19/53/42 18/54/43 12/17/13
f 16/42/33 22/55/38 21/50/39 15/43/34
f 14/56/41 20/57/40 19/53/42 13/39/30
f 12/58/13 18/59/43 17/47/37 11/46/14
f 6/12/8 28/60/44 29/61/45 8/13/10
f 38/62/46 36/63/47 31/64/48 37/65/49
f 2/5/2 26/66/50 27/67/51 4/6/5
f 8/13/10 29/61/45 30/68/52 24/22/18
f 23/1/1 25/69/53 26/70/50 2/2/2
f 4/6/5 27/67/51 28/71/44 6/10/8
f 24/25/18 30/72/52 25/69/53 23/1/1
f 32/73/54 82/74/55 83/75/56 33/76/57
f 40/77/58 34/78/59 35/79/60 39/80/61
f 42/81/62 32/73/54 33/76/57 41/82/63
f 39/80/61 35/79/60 36/83/47 38/84/46
f 41/82/63 33/76/57 34/85/59 40/86/58
f 37/65/49 31/64/48 32/87/54 42/88/62
f 25/69/53 37/65/49 42/88/62 26/70/50
f 27/67/51 41/82/63 40/86/58 28/71/44
f 29/61/45 39/80/61 38/84/46 30/68/52
f 26/66/50 42/81/62 41/82/63 27/67/51
f 28/60/44 40/77/58 39/80/61 29/61/45
f 30/72/52 38/62/46 37/65/49 25/69/53
f 43/89/64 48/90/65 47/91/66 46/92/67 45/93/68 44/94/69
f 35/79/60 85/95/70 86/96/71 36/83/47
f 54/97/72 50/98/73 49/99/74 53/100/75
f 31/64/48 81/101/76 82/102/55 32/87/54
f 36/63/47 86/103/71 81/101/76 31/64/48
f 53/104/75 49/105/74 52/106/77
f 52/106/77 49/105/74 50/107/73 55/108/78
f 57/109/79 51/110/80 56/111/81
f 56/111/81 51/110/80 50/112/73 54/113/72
f 55/114/78 50/115/73 51/116/80 57/117/79
f 62/118/82 55/114/78 57/117/79 60/119/83
f 63/120/84 56/121/81 54/97/72 59/122/85
f 60/123/83 57/109/79 56/111/81 63/124/84
f 61/125/86 52/106/77 55/108/78 62/126/82
f 58/127/87 53/104/75 52/106/77 61/125/86
f 59/122/85 54/97/72 53/100/75 58/128/87
f 84/129/88 59/122/85 58/128/87 83/130/56
f 83/75/56 58/127/87 61/125/86 33/76/57
f 33/76/57 61/125/86 62/126/82 34/85/59
f 35/131/60 60/119/83 63/132/84 85/133/70
f 85/134/70 63/120/84 59/122/85 84/129/88
f 34/135/59 62/118/82 60/119/83 35/131/60
f 75/136/89 68/137/90 122/138/91 119/139/92
f 74/140/93 66/141/27 117/142/94 115/143/95
f 72/144/96 69/145/97 67/146/98 71/147/99
f 73/148/100 64/149/101 68/150/90 75/151/89
f 71/152/99 67/153/98 66/141/27 74/140/93
f 70/154/102 65/155/103 64/156/101 73/157/100
f 3/9/3 70/154/102 73/157/100 1/158/4
f 7/11/9 71/152/99 74/140/93 5/7/6
f 1/4/4 73/148/100 75/151/89 10/26/19
f 9/14/11 72/144/96 71/147/99 7/15/9
f 5/7/6 74/140/93 115/143/95 118/8/7
f 10/23/19 75/136/89 119/139/92 123/24/20
f 80/159/35 102/160/104 79/161/105
f 94/162/24 109/163/23 102/164/104 80/44/35
f 69/145/97 80/44/35 79/165/105 67/146/98
f 67/153/98 79/166/105 76/38/25 66/141/27
f 99/20/16 112/167/29 108/168/106 98/21/17
f 88/169/107 82/102/55 81/101/76 87/170/108
f 89/171/109 83/130/56 82/172/55 88/173/107
f 90/174/110 84/129/88 83/130/56 89/171/109
f 91/175/111 85/134/70 84/129/88 90/174/110
f 92/176/112 86/177/71 85/134/70 91/175/111
f 87/178/108 81/179/76 86/177/71 92/176/112
f 44/180/69 88/169/107 87/170/108 43/181/64
f 45/182/68 89/183/109 88/184/107 44/185/69
f 46/92/67 90/174/110 89/171/109 45/93/68
f 47/186/66 91/187/111 90/188/110 46/189/67
f 48/190/65 92/191/112 91/187/111 47/186/66
f 43/181/64 87/170/108 92/192/112 48/193/65
f 94/162/24 80/44/35 15/43/34 14/52/41 93/194/21
f 93/194/21 14/52/41 13/195/30 76/196/25 95/197/113
f 79/166/105 106/198/22 110/199/114 104/200/26
f 78/16/12 101/201/115 116/202/116 114/40/31
f 97/203/15 11/46/14 16/49/33 77/204/32 96/205/117 100/206/118
f 103/207/119 111/208/28 113/209/120 107/210/121
f 102/164/104 109/163/23 106/211/22 79/165/105
f 68/150/90 105/212/122 121/213/123 122/214/91
f 66/141/27 104/200/26 116/202/116 117/142/94
f 64/149/101 103/207/119 107/210/121 105/212/122 68/150/90
f 65/215/103 101/216/115 108/217/106 103/218/119 64/219/101
f 111/208/28 103/207/119 108/220/106 112/221/29
f 100/222/118 113/223/120 111/35/28 97/34/15
f 95/224/113 110/199/114 106/198/22 93/225/21
f 79/226/105 104/227/26 76/228/25
f 96/229/117 107/230/121 113/231/120 100/232/118
f 76/38/25 104/200/26 110/199/114 95/224/113
f 69/233/97 102/234/104 80/231/35
f 98/235/17 108/236/106 101/237/115 78/238/12
f 77/239/32 105/240/122 107/241/121 96/242/117
f 80/44/35 102/164/104 121/243/123 120/45/36
f 117/142/94 65/155/103 70/154/102 115/143/95
f 116/202/116 104/200/26 76/38/25 114/40/31
f 115/143/95 70/154/102 3/9/3 118/8/7
f 116/202/116 101/201/115 65/155/103 117/142/94
f 121/243/123 105/244/122 77/41/32 120/45/36
f 121/243/123 102/164/104 69/145/97 122/138/91
f 122/138/91 69/145/97 72/144/96 119/139/92
f 119/139/92 72/144/96 9/14/11 123/24/20
f 18/245/43 19/246/42 20/247/40 21/248/39 22/249/38 17/250/37
